<svg version="1.1" id="Layer_1" xmlns="http://www.w3.org/2000/svg" xmlns:xlink="http://www.w3.org/1999/xlink" x="0px" y="0px"
	 width="50px" height="53px" viewBox="0 0 50 53" enable-background="new 0 0 50 53" xml:space="preserve">
<g>
	<path id="LOGO" fill="#8acf84" d="M30.68,20.313h6.586v-2.692c0-4.862-2.666-9.068-6.586-11.353
		c-1.02-0.588-2.119-1.051-3.293-1.349c-1.068-0.279-2.155-0.478-3.294-0.478c-1.142,0-2.24,0.198-3.295,0.478
		c-1.177,0.298-2.274,0.761-3.296,1.349c-3.924,2.284-6.591,6.49-6.591,11.353V33.4c0,4.866,2.667,9.069,6.591,11.351
		c1.021,0.589,2.119,1.056,3.296,1.354c1.055,0.276,2.153,0.474,3.295,0.474c1.139,0,2.226-0.197,3.294-0.474
		c1.174-0.298,2.273-0.765,3.293-1.354c3.92-2.281,6.586-6.484,6.586-11.351v-9.795H20.798V33.4c0,1.819,1.475,3.293,3.295,3.293
		c1.813,0,3.294-1.474,3.294-3.293v-3.205h3.293V33.4c0,2.426-1.336,4.53-3.293,5.671c-0.973,0.569-2.097,0.919-3.294,0.919
		c-1.212,0-2.33-0.35-3.295-0.919c-1.966-1.141-3.296-3.245-3.296-5.671V17.621c0-2.432,1.33-4.532,3.296-5.673
		c0.965-0.567,2.083-0.916,3.295-0.916c1.197,0,2.321,0.349,3.294,0.916c1.957,1.141,3.293,3.241,3.293,5.673V20.313z"/>
</g>
</svg>

