<svg version="1.1" id="Layer_1" xmlns="http://www.w3.org/2000/svg" xmlns:xlink="http://www.w3.org/1999/xlink" x="0px" y="0px"
	 width="250px" height="140px" viewBox="0 0 250 140" enable-background="new 0 0 250 140" xml:space="preserve">
<rect id="BG" x="0.602" display="none" fill="#30343B" width="249.398" height="140.393"/>
<g>
	<path id="LOGO" fill="#8ACF84" d="M131.537,51.008h6.531v-2.671c0-4.823-2.643-8.993-6.531-11.258
		c-1.012-0.585-2.102-1.042-3.265-1.34c-1.062-0.276-2.139-0.472-3.269-0.472c-1.131,0-2.221,0.196-3.268,0.472
		c-1.167,0.297-2.255,0.755-3.268,1.34c-3.891,2.265-6.537,6.436-6.537,11.258v15.651c0,4.827,2.646,8.995,6.537,11.258
		c1.013,0.583,2.102,1.048,3.268,1.343c1.046,0.273,2.136,0.47,3.268,0.47c1.13,0,2.208-0.196,3.269-0.47
		c1.163-0.295,2.253-0.76,3.265-1.343c3.889-2.263,6.531-6.431,6.531-11.258v-9.713h-16.333v9.713c0,1.803,1.463,3.266,3.268,3.266
		c1.801,0,3.269-1.463,3.269-3.266v-3.179h3.265v3.179c0,2.405-1.324,4.493-3.265,5.625c-0.967,0.564-2.081,0.91-3.269,0.91
		c-1.2,0-2.31-0.346-3.268-0.91c-1.95-1.131-3.268-3.22-3.268-5.625V48.337c0-2.41,1.318-4.495,3.268-5.625
		c0.958-0.563,2.067-0.909,3.268-0.909c1.188,0,2.302,0.346,3.269,0.909c1.94,1.13,3.265,3.215,3.265,5.625V51.008z"/>
</g>
<g>
	<path fill="#FCFCFC" d="M97.689,100.338c1.057,0.603,2.314,1.04,3.354,1.04c0.855,0,1.376-0.319,1.376-0.823
		c0-1.575-5.989-0.453-5.989-4.881c0-1.996,1.645-3.656,4.479-3.656c1.51,0,2.919,0.385,4.412,1.072l-1.175,2.5
		c-1.141-0.571-2.164-0.772-3.069-0.772c-0.822,0-1.292,0.354-1.292,0.823c0,1.543,5.988,0.385,5.988,4.864
		c0,2.063-1.576,3.69-4.714,3.69c-1.795,0-3.758-0.638-4.898-1.358L97.689,100.338z"/>
	<path fill="#FCFCFC" d="M106.815,92.234h3.271v7.214c0,1.224,0.688,2.013,1.896,2.013c1.191,0,1.912-0.789,1.912-2.013v-7.214
		h3.255v7.197c0,3.236-2.063,4.764-5.167,4.764c-3.087,0-5.167-1.527-5.167-4.764V92.234z"/>
	<path fill="#FCFCFC" d="M118.558,92.234h3.237l3.104,4.361l3.12-4.361h3.188v11.742h-3.037v-7.28l-3.271,4.463l-3.271-4.463v7.28
		h-3.07V92.234z"/>
	<path fill="#FCFCFC" d="M132.684,92.234h8.857v2.784h-5.62v1.796h4.966v2.416h-4.966v1.963h5.671v2.783h-8.908V92.234z"/>
	<path fill="#FCFCFC" d="M146.138,92.234h3.606l4.094,11.742h-3.473l-0.537-1.744h-3.792l-0.52,1.744h-3.488L146.138,92.234z
		 M146.759,99.833h2.348l-1.157-3.84h-0.033L146.759,99.833z"/>
</g>
</svg>