<?xml version="1.0" encoding="utf-8"?>
<!-- Generator: Adobe Illustrator 16.0.0, SVG Export Plug-In . SVG Version: 6.00 Build 0)  -->
<!DOCTYPE svg PUBLIC "-//W3C//DTD SVG 1.1//EN" "http://www.w3.org/Graphics/SVG/1.1/DTD/svg11.dtd">
<svg version="1.1" id="Layer_1" xmlns="http://www.w3.org/2000/svg" xmlns:xlink="http://www.w3.org/1999/xlink" x="0px" y="0px"
	 width="73px" height="21px" viewBox="0 0 73 21" enable-background="new 0 0 73 21" xml:space="preserve">
<g>
	<path id="LOGO" fill="#8ACF84" d="M9.72,8.103h3.178V6.802c0-2.347-1.286-4.375-3.178-5.479C9.228,1.04,8.698,0.817,8.131,0.672
		c-0.516-0.134-1.04-0.229-1.59-0.229S5.46,0.538,4.952,0.672C4.384,0.817,3.854,1.04,3.362,1.323
		C1.468,2.427,0.181,4.455,0.181,6.802v7.615c0,2.347,1.287,4.377,3.181,5.478c0.492,0.283,1.022,0.51,1.59,0.653
		c0.509,0.133,1.039,0.228,1.589,0.228s1.075-0.095,1.59-0.228c0.566-0.144,1.097-0.37,1.589-0.653
		c1.892-1.101,3.178-3.131,3.178-5.478V9.691H4.952v4.726c0,0.876,0.712,1.588,1.589,1.588c0.876,0,1.59-0.712,1.59-1.588v-1.548
		H9.72v1.548c0,1.169-0.644,2.186-1.589,2.736c-0.469,0.275-1.012,0.443-1.59,0.443c-0.583,0-1.124-0.168-1.589-0.443
		c-0.948-0.551-1.59-1.567-1.59-2.736V6.802c0-1.174,0.642-2.188,1.59-2.737C5.417,3.79,5.958,3.621,6.541,3.621
		c0.579,0,1.121,0.169,1.59,0.443C9.076,4.614,9.72,5.628,9.72,6.802V8.103z"/>
</g>
<g>
	<path fill="#30343B" d="M24.293,12.796c0.875,0.497,1.915,0.859,2.775,0.859c0.708,0,1.138-0.264,1.138-0.681
		c0-1.303-4.955-0.375-4.955-4.038c0-1.651,1.361-3.025,3.706-3.025c1.249,0,2.416,0.318,3.651,0.888l-0.972,2.068
		c-0.944-0.473-1.791-0.64-2.54-0.64c-0.68,0-1.069,0.293-1.069,0.682c0,1.276,4.955,0.317,4.955,4.024
		c0,1.707-1.305,3.054-3.901,3.054c-1.485,0-3.109-0.527-4.053-1.125L24.293,12.796z"/>
	<path fill="#30343B" d="M31.844,6.09h2.707v5.969c0,1.014,0.569,1.666,1.568,1.666c0.986,0,1.582-0.652,1.582-1.666V6.09h2.693
		v5.956c0,2.677-1.707,3.941-4.275,3.941c-2.554,0-4.275-1.265-4.275-3.941V6.09z"/>
	<path fill="#30343B" d="M41.56,6.09h2.679l2.568,3.609l2.582-3.609h2.637v9.716h-2.513V9.782l-2.706,3.692L44.1,9.782v6.023h-2.54
		V6.09z"/>
	<path fill="#30343B" d="M53.247,6.09h7.329v2.305h-4.65v1.486h4.108v1.998h-4.108v1.624h4.691v2.303h-7.37V6.09z"/>
	<path fill="#30343B" d="M64.379,6.09h2.984l3.387,9.716h-2.873l-0.444-1.442h-3.138l-0.43,1.442h-2.887L64.379,6.09z
		 M64.893,12.378h1.943L65.878,9.2H65.85L64.893,12.378z"/>
</g>
</svg>
